<?xml version="1.0" standalone="no"?>
<!DOCTYPE svg PUBLIC "-//W3C//DTD SVG 20010904//EN"
 "http://www.w3.org/TR/2001/REC-SVG-20010904/DTD/svg10.dtd">
<svg version="1.0" xmlns="http://www.w3.org/2000/svg"
 width="512.000000pt" height="512.000000pt" viewBox="0 0 512.000000 512.000000"
 preserveAspectRatio="xMidYMid meet">

<g transform="translate(0.000000,512.000000) scale(0.100000,-0.100000)"
fill="#000000" stroke="none">
<path d="M1535 5106 c-96 -16 -185 -41 -239 -68 -52 -27 -139 -110 -170 -162
-59 -101 -56 -20 -56 -1554 l0 -1404 -77 -71 c-484 -452 -446 -1230 81 -1629
356 -269 850 -288 1224 -46 172 111 338 317 413 512 87 223 93 494 17 721 -32
96 -72 126 -132 101 -54 -22 -61 -57 -32 -148 14 -41 30 -106 37 -143 15 -86
6 -291 -15 -370 -91 -327 -337 -568 -666 -651 -108 -27 -315 -25 -425 5 -324
87 -571 341 -652 668 -25 102 -22 313 6 418 24 89 83 221 131 291 44 63 141
165 190 199 76 53 70 -73 70 1506 0 1095 3 1431 12 1463 8 25 32 61 63 93 42
43 61 54 120 72 213 62 504 47 638 -33 58 -35 110 -110 121 -173 3 -21 6 -675
6 -1454 l0 -1416 23 -20 c12 -11 32 -24 44 -27 30 -9 81 19 93 50 14 35 13
2834 0 2905 -23 123 -120 250 -230 301 -147 69 -394 95 -595 64z"/>
<path d="M1659 4291 c-28 -29 -29 -33 -29 -126 0 -93 1 -97 29 -126 33 -32 58
-36 100 -14 38 19 41 30 41 146 0 93 -2 102 -25 124 -34 35 -78 33 -116 -4z"/>
<path d="M1681 3754 c-17 -7 -36 -25 -41 -39 -6 -16 -10 -223 -10 -536 0 -538
1 -556 45 -573 35 -13 76 -6 100 19 l25 24 0 529 c0 512 -1 530 -20 554 -24
32 -59 39 -99 22z"/>
<path d="M2871 3724 c-21 -26 -21 -34 -21 -656 l0 -629 25 -24 c34 -35 78 -33
116 4 l29 29 0 566 0 566 159 0 c154 0 160 -1 212 -28 160 -84 186 -292 50
-415 -40 -36 -119 -67 -173 -67 -39 0 -78 -40 -78 -80 0 -44 47 -90 92 -90 50
0 145 27 200 57 67 37 143 121 181 200 29 63 32 76 32 168 -1 81 -5 111 -24
158 -44 112 -138 202 -256 246 -51 19 -78 21 -290 21 l-234 0 -20 -26z"/>
<path d="M4023 3284 c-31 -7 -63 -51 -63 -85 0 -15 11 -40 24 -56 23 -26 28
-28 132 -31 60 -2 119 -8 131 -14 29 -15 53 -67 53 -117 l0 -41 -152 0 c-167
0 -199 -8 -266 -65 -87 -73 -118 -212 -70 -316 29 -63 73 -111 132 -142 38
-20 57 -22 254 -25 l212 -3 31 30 30 31 -3 317 -3 318 -29 53 c-32 58 -83 103
-142 128 -37 16 -226 28 -271 18z m277 -619 l0 -105 -136 0 -136 0 -34 34
c-46 46 -48 104 -5 147 l29 29 141 0 141 0 0 -105z"/>
<path d="M1672 2323 c-7 -3 -19 -18 -27 -33 -12 -24 -15 -89 -15 -374 0 -195
4 -356 10 -370 12 -34 52 -52 127 -59 136 -11 265 -103 330 -234 32 -65 37
-86 41 -162 5 -108 -12 -172 -67 -259 -47 -71 -135 -141 -214 -169 -36 -12
-81 -18 -147 -18 -86 0 -101 3 -163 32 -219 104 -311 343 -217 565 16 40 30
83 30 96 0 35 -43 72 -83 72 -46 0 -78 -34 -111 -114 -120 -302 11 -635 305
-770 128 -59 257 -71 394 -36 206 53 376 222 429 426 20 79 21 222 1 299 -49
187 -195 348 -373 410 -37 13 -79 26 -94 30 l-28 5 0 309 c0 297 -1 309 -21
335 -16 20 -29 26 -57 25 -20 0 -43 -3 -50 -6z"/>
</g>
</svg>
